<svg width="19" height="11" viewBox="0 0 19 11" fill="none" xmlns="http://www.w3.org/2000/svg">
<path d="M18.1364 4.24109H2.94865L5.79249 1.44798C6.12977 1.11678 6.12977 0.579696 5.79249 0.248441C5.45527 -0.0828138 4.90841 -0.0828138 4.57113 0.248441L0.252959 4.4895C-0.0843196 4.8207 -0.0843196 5.35779 0.252959 5.68904L4.57113 9.9301C4.73977 10.0957 4.96081 10.1786 5.18184 10.1786C5.40287 10.1786 5.62391 10.0957 5.79249 9.9301C6.12977 9.5989 6.12977 9.06182 5.79249 8.73056L2.94865 5.93751H18.1364C18.6133 5.93751 19 5.55774 19 5.0893C19 4.62086 18.6133 4.24109 18.1364 4.24109Z" fill="white"/>
</svg>
