<svg width="21" height="20" viewBox="0 0 21 20" fill="none" xmlns="http://www.w3.org/2000/svg">
<path d="M5.81232 7.85516H1.52691C1.13352 7.85516 0.815464 8.17322 0.811279 8.57079V19.2843C0.811279 19.6819 1.13352 20 1.52691 20H5.81232C6.2099 20 6.52795 19.6777 6.52795 19.2843V8.57079C6.52795 8.17322 6.20571 7.85516 5.81232 7.85516Z" fill="white"/>
<path d="M12.9561 0H8.67071C8.27732 0 7.95508 0.318058 7.95508 0.711446V19.2844C7.95508 19.6819 8.27732 20 8.67071 20H12.9561C13.3537 20 13.6717 19.6777 13.6717 19.2844V0.715631C13.6717 0.318058 13.3495 0 12.9561 0Z" fill="white"/>
<path d="M20.0997 5.71249H15.8143C15.4167 5.71249 15.0986 6.03055 15.0986 6.42812V19.2844C15.0986 19.6819 15.4209 20 15.8143 20H20.0997C20.4972 20 20.8153 19.6778 20.8153 19.2844V6.42812C20.8153 6.03055 20.493 5.71249 20.0997 5.71249Z" fill="white"/>
</svg>
