<svg width="23" height="20" viewBox="0 0 23 20" fill="none" xmlns="http://www.w3.org/2000/svg">
<path d="M19.7678 15.4348C19.1234 15.4348 18.5206 15.1177 18.1556 14.5867L17.1981 13.194C16.0703 15.2162 13.9263 16.5217 11.507 16.5217C8.13106 16.5217 5.34596 13.9431 5.0176 10.6522H5.63744C5.8796 10.6522 6.10189 10.518 6.21463 10.3036C6.32736 10.0893 6.31204 9.83007 6.17484 9.63052L5.22413 8.24768L3.78354 6.15223C3.66193 5.97529 3.46092 5.86954 3.24614 5.86954C3.21929 5.86954 3.19266 5.87117 3.16635 5.87439C3.14003 5.87762 3.11411 5.88248 3.08863 5.88879C3.02495 5.90464 2.96419 5.92994 2.90842 5.96373C2.83035 6.01097 2.76191 6.07478 2.7087 6.15219L0.317392 9.63048C0.180195 9.83002 0.164872 10.0893 0.277606 10.3036C0.39034 10.5179 0.612629 10.6522 0.854833 10.6522H1.52779C1.68296 13.0778 2.70181 15.3369 4.43596 17.0711C6.32471 18.9599 8.83591 20 11.507 20C14.1781 20 16.6893 18.9599 18.578 17.0711C19.0801 16.569 19.5248 16.0182 19.9065 15.4294C19.8605 15.4326 19.8143 15.4348 19.7678 15.4348Z" fill="white"/>
<path d="M12.0038 9.34773H11.0101C10.8217 9.34773 10.6685 9.1945 10.6685 9.00613V8.50923C10.6685 8.32089 10.8217 8.16767 11.0101 8.16767H12.0038C12.1922 8.16767 12.3454 8.32089 12.3454 8.50923C12.3454 8.86942 12.6375 9.16139 12.9976 9.16139C13.3578 9.16139 13.6498 8.86937 13.6498 8.50923C13.6498 7.65407 12.9941 6.94936 12.1591 6.87085V6.5217C12.1591 6.16151 11.867 5.86954 11.5069 5.86954C11.1467 5.86954 10.8547 6.16155 10.8547 6.5217V6.87085C10.0197 6.94936 9.36401 7.65407 9.36401 8.50923V9.00613C9.36401 9.91374 10.1024 10.6521 11.01 10.6521H12.0038C12.1921 10.6521 12.3454 10.8053 12.3454 10.9937V11.4906C12.3454 11.6789 12.1921 11.8322 12.0038 11.8322H11.01C10.8216 11.8322 10.6684 11.679 10.6684 11.4906C10.6684 11.1305 10.3764 10.8385 10.0162 10.8385C9.65607 10.8385 9.36406 11.1305 9.36406 11.4906C9.36406 12.3458 10.0197 13.0505 10.8548 13.129V13.4781C10.8548 13.8383 11.1468 14.1303 11.5069 14.1303C11.8671 14.1303 12.1591 13.8383 12.1591 13.4781V13.129C12.9941 13.0505 13.6498 12.3458 13.6498 11.4906V10.9937C13.6498 10.0861 12.9115 9.34773 12.0038 9.34773Z" fill="white"/>
<path d="M22.7363 9.69637C22.6235 9.48203 22.4012 9.34779 22.159 9.34779H21.4861C21.3309 6.92217 20.3121 4.66308 18.5779 2.92888C16.6892 1.04017 14.178 0 11.5069 0C8.83589 0 6.32461 1.04017 4.4359 2.92892C3.93379 3.43104 3.48916 3.98186 3.10742 4.57061C3.15339 4.56734 3.19958 4.56522 3.24608 4.56522C3.89056 4.56522 4.49326 4.88227 4.85831 5.41331L5.81573 6.80595C6.94356 4.78376 9.08754 3.47829 11.5069 3.47829C14.8828 3.47829 17.6679 6.05691 17.9963 9.34783H17.3764C17.1343 9.34783 16.912 9.48203 16.7992 9.69641C16.6865 9.91075 16.7018 10.17 16.839 10.3695L17.7897 11.7523L19.2303 13.8478C19.2608 13.892 19.2961 13.9318 19.3354 13.9666C19.4533 14.071 19.6067 14.1305 19.7678 14.1305C19.9825 14.1305 20.1836 14.0247 20.3052 13.8478L21.1687 12.5918L22.6965 10.3695C22.8337 10.1699 22.849 9.91067 22.7363 9.69637Z" fill="white"/>
</svg>
