<svg width="19" height="19" viewBox="0 0 19 19" fill="none" xmlns="http://www.w3.org/2000/svg">
<path d="M18.1364 4.24109H2.94865L5.79249 1.44798C6.12977 1.11678 6.12977 0.579696 5.79249 0.248441C5.45527 -0.0828138 4.90841 -0.0828138 4.57113 0.248441L0.252959 4.4895C-0.0843196 4.8207 -0.0843196 5.35779 0.252959 5.68904L4.57113 9.9301C4.73977 10.0957 4.96081 10.1786 5.18184 10.1786C5.40287 10.1786 5.62391 10.0957 5.79249 9.9301C6.12977 9.5989 6.12977 9.06182 5.79249 8.73056L2.94865 5.93751H18.1364C18.6133 5.93751 19 5.55774 19 5.0893C19 4.62086 18.6133 4.24109 18.1364 4.24109Z" fill="white"/>
<path d="M14.4289 9.06984C14.0916 8.73864 13.5448 8.73864 13.2075 9.06984C12.8702 9.40104 12.8702 9.93813 13.2075 10.2694L16.0514 13.0625H0.863638C0.386679 13.0625 0 13.4423 0 13.9107C0 14.3792 0.386679 14.7589 0.863638 14.7589H16.0514L13.2076 17.5521C12.8703 17.8833 12.8703 18.4203 13.2076 18.7516C13.3761 18.9172 13.5972 19 13.8182 19C14.0392 19 14.2603 18.9172 14.4289 18.7515L18.747 14.5105C19.0843 14.1793 19.0843 13.6422 18.747 13.3109L14.4289 9.06984Z" fill="white"/>
</svg>
