<svg width="17" height="20" viewBox="0 0 17 20" fill="none" xmlns="http://www.w3.org/2000/svg">
<path d="M12.3551 6.05397C12.8823 5.9576 13.5118 5.89012 14.4262 5.89012V4.70419C13.0371 4.70419 12.2223 4.85228 11.5159 5.01997L12.3551 6.05397Z" fill="white"/>
<path d="M4.68675 5.01997C3.98029 4.85228 3.16552 4.70419 1.77637 4.70419V5.89012C2.6908 5.89012 3.32032 5.9576 3.84755 6.05397L4.68675 5.01997Z" fill="white"/>
<path d="M8.10115 5.49478C9.60936 5.49478 10.3431 5.31136 11.1198 5.11718C11.25 5.08465 11.3809 5.05192 11.5157 5.01994L13.0117 1.3348L12.5776 1.07334C12.5049 1.02946 10.7653 0 8.10115 0C5.43701 0 3.69742 1.02946 3.62468 1.0733L3.19067 1.33476L4.68664 5.0199C4.82148 5.05192 4.9524 5.08461 5.08254 5.11714C5.85924 5.31136 6.59293 5.49478 8.10115 5.49478Z" fill="white"/>
<path d="M14.9167 10.2967C14.2208 8.62814 13.3309 7.15997 12.355 6.05393C12.0127 6.11651 11.7134 6.19122 11.4076 6.26772C10.5954 6.47071 9.75549 6.68069 8.10124 6.68069C6.447 6.68069 5.60717 6.47071 4.79497 6.26768C4.48916 6.19122 4.18983 6.11647 3.84749 6.05389C2.86515 7.16736 1.9695 8.64862 1.27226 10.3295C0.463696 12.2786 0 14.3101 0 15.9031C0 17.2528 0.332059 18.2338 1.01523 18.9023C2.21333 20.0746 4.22742 20.0308 6.55946 19.98C7.05858 19.9692 7.5747 19.9579 8.10128 19.9579C8.62787 19.9579 9.14399 19.9692 9.6431 19.98C10.1077 19.9902 10.5596 20 10.995 20C12.7452 20 14.2279 19.8411 15.1873 18.9023C15.8705 18.2338 16.2026 17.2528 16.2026 15.9031C16.2025 14.2998 15.7339 12.2564 14.9167 10.2967ZM7.46563 11.5427C7.7852 11.7934 8.35725 12.0142 8.87467 12.1971C10.8111 12.8716 10.5109 15.5319 8.65895 16.0635V16.9587H7.47302V16.121C6.8563 16.0728 6.34106 15.7049 5.77426 15.3283L6.42348 14.3359L6.91967 14.6605C7.34115 14.9362 7.5122 14.9629 8.06203 14.9597C8.93056 14.9928 9.48368 13.6786 8.47944 13.3152C7.60588 13.0064 7.10013 12.7632 6.7338 12.4759C5.66939 11.6288 6.23053 9.84462 7.47302 9.46299V8.6177H8.65895V9.37693C9.41786 9.5143 9.7222 9.75117 10.261 10.03L9.69837 11.074C9.69837 11.074 9.1764 10.7926 9.1764 10.7927C8.7626 10.545 7.55995 10.2136 7.36487 11.1753C7.35581 11.2359 7.33644 11.4414 7.46563 11.5427Z" fill="white"/>
</svg>
