<svg width="24" height="24" viewBox="0 0 24 24" fill="white" xmlns="http://www.w3.org/2000/svg">
<rect width="24" height="24" rx="12.5" fill="none"/>
<path d="M8.81075 12.5C8.81075 11.8119 9.00034 11.1672 9.32971 10.6153V8.27405H6.98846C6.05923 9.48086 5.55554 10.9516 5.55554 12.5C5.55554 14.0483 6.05923 15.5191 6.98846 16.7259H9.32971V14.3847C9.00034 13.8327 8.81075 13.1881 8.81075 12.5Z" fill="#0F1114"/>
<path fill-rule="evenodd" clip-rule="evenodd" d="M6.9884 16.7259L9.32966 14.3847C9.97397 15.4644 11.1538 16.1892 12.4999 16.1892V16.1893L12.5 16.1892C13.183 16.1892 13.8304 16.0033 14.3871 15.6728H16.7259V18.0115C15.5191 18.9408 14.0483 19.4444 12.5 19.4444L12.4999 19.4444C10.645 19.4444 8.90111 18.7221 7.58948 17.4105C7.37271 17.1937 7.17238 16.9649 6.9884 16.7259Z" fill="#0F1114"/>
<path d="M19.4444 12.5C19.4444 12.0775 19.4062 11.6542 19.3307 11.2419L19.2697 10.9083H12.5V14.1635H15.7946C15.4747 14.7999 14.9827 15.3192 14.3872 15.6728L16.7259 18.0115C16.9648 17.8276 17.1937 17.6272 17.4105 17.4105C18.7221 16.0988 19.4444 14.3549 19.4444 12.5Z" fill="#0F1114"/>
<path d="M15.1087 9.89129L15.3964 10.179L17.6982 7.87724L17.4105 7.58953C16.0989 6.2779 14.355 5.55554 12.5 5.55554L10.8724 7.18315L12.5 8.81075C13.4854 8.81075 14.4119 9.19449 15.1087 9.89129Z" fill="#0F1114"/>
<path d="M12.5 8.81075V5.55554C10.645 5.55554 8.90114 6.2779 7.58948 7.5895C7.37271 7.80627 7.17238 8.03509 6.9884 8.27405L9.32966 10.6153C9.974 9.53558 11.1538 8.81075 12.5 8.81075Z" fill="#0F1114"/>
</svg>
