<svg width="21" height="20" viewBox="0 0 21 20" fill="none" xmlns="http://www.w3.org/2000/svg">
<path d="M19.9541 12.1917L18.1157 10.7542C18.1391 10.5325 18.1591 10.2734 18.1591 9.99918C18.1591 9.725 18.1399 9.46586 18.1157 9.24418L19.9557 7.80586C20.2974 7.53586 20.3907 7.05668 20.1732 6.65754L18.2616 3.35C18.0574 2.97668 17.6099 2.785 17.1557 2.9525L14.9866 3.82332C14.5707 3.52332 14.1349 3.27 13.6841 3.0675L13.3541 0.76668C13.2999 0.33 12.9199 0 12.4707 0H8.63741C8.18823 0 7.80909 0.33 7.75573 0.76L7.42491 3.06918C6.98823 3.26586 6.55909 3.51586 6.12491 3.825L3.94991 2.95168C3.54237 2.79418 3.05487 2.97082 2.85237 3.3425L0.938232 6.65418C0.712411 7.03586 0.805732 7.53168 1.15491 7.80836L2.99323 9.24586C2.96405 9.52668 2.94991 9.77086 2.94991 10C2.94991 10.2292 2.96409 10.4734 2.99323 10.755L1.15323 12.1934C0.811552 12.4642 0.719052 12.9434 0.936552 13.3417L2.84823 16.6492C3.05241 17.0217 3.49573 17.215 3.95405 17.0467L6.12323 16.1759C6.53823 16.475 6.97405 16.7284 7.42491 16.9317L7.75491 19.2317C7.80905 19.67 8.18823 20 8.63823 20H12.4716C12.9207 20 13.3007 19.67 13.3541 19.24L13.6849 16.9317C14.1216 16.7342 14.5499 16.485 14.9849 16.175L17.1599 17.0483C17.2649 17.0891 17.3741 17.11 17.4866 17.11C17.8099 17.11 18.1074 16.9333 18.2574 16.6583L20.1774 13.3333C20.3907 12.9433 20.2974 12.4642 19.9541 12.1917ZM10.5541 13.3333C8.71573 13.3333 7.22073 11.8383 7.22073 10C7.22073 8.16168 8.71573 6.66668 10.5541 6.66668C12.3924 6.66668 13.8874 8.16168 13.8874 10C13.8874 11.8383 12.3924 13.3333 10.5541 13.3333Z" fill="white"/>
</svg>
