<svg width="19" height="19" viewBox="0 0 19 19" fill="none" xmlns="http://www.w3.org/2000/svg">
<path fill-rule="evenodd" clip-rule="evenodd" d="M-0.000244141 10.668C-0.000244141 4.77138 4.77194 0 10.6678 0C11.0298 0 11.3233 0.293503 11.3233 0.655533V10.668C11.3233 11.03 11.0298 11.3235 10.6678 11.3235H0.655289C0.293258 11.3235 -0.000244141 11.03 -0.000244141 10.668ZM1.33326 10.0125H10.0122V1.3335C5.36286 1.65344 1.65285 5.36851 1.33326 10.0125ZM11.8727 2.10679C11.8727 1.66218 12.3071 1.34883 12.7267 1.48206C16.3226 2.61222 19.0001 5.98049 19.0001 10.0354C19.0001 14.9906 14.99 19 10.0355 19C5.97596 19 2.61097 16.3179 1.48227 12.7269C1.34606 12.2988 1.67106 11.8726 2.10689 11.8726H5.47502C5.72437 11.8726 5.94496 12.0118 6.0554 12.2162C6.85361 13.6701 8.37832 14.573 10.0355 14.573C12.5374 14.573 14.5731 12.5374 14.5731 10.0354C14.5731 8.37822 13.6702 6.85357 12.2164 6.05535C12.007 5.94287 11.8712 5.7181 11.8727 5.4738V2.10679ZM13.1837 3.05823V5.1063C14.6743 6.05904 15.6264 7.42574 15.8472 9.37983C15.9047 9.8886 15.9048 10.1821 15.8475 10.6909C15.5289 13.5209 13.521 15.5289 10.691 15.8474C10.1822 15.9047 9.88869 15.9045 9.37992 15.847C7.42584 15.6262 6.0591 14.6742 5.10636 13.1836H3.05833C4.17789 15.6513 6.36573 17.4027 9.37992 17.6611C9.89006 17.7049 10.1809 17.7048 10.691 17.6609C14.5262 17.3304 17.3304 14.5261 17.6609 10.6909C17.7049 10.1808 17.705 9.88996 17.6613 9.37983C17.4029 6.36562 15.6499 4.17711 13.1837 3.05823Z" fill="white"/>
</svg>
