<svg width="24" height="14" viewBox="0 0 24 14" fill="none" xmlns="http://www.w3.org/2000/svg">
<path fill-rule="evenodd" clip-rule="evenodd" d="M11 0H15.41L19.44 4.03C22.03 4.23 24 6.35 24 9C24 11.8 21.8 14 19 14C16.2 14 14 11.8 14 9C14 8.37 14.11 7.77 14.32 7.23L11.55 10H9.9C9.45 12.31 7.46 14 5 14C2.2 14 0 11.8 0 9C0 6.2 2.2 4 5 4H16.59L14.59 2H11V0ZM10.72 8L12.72 6H8.98C9.28 6.39 9.52 6.83 9.7 7.31L9.95 8H10.72ZM19 12C17.34 12 16 10.66 16 9C16 7.34 17.34 6 19 6C20.66 6 22 7.34 22 9C22 10.66 20.66 12 19 12ZM2 9C2 10.63 3.37 12 5 12C6.28 12 7.4 11.15 7.82 10H5V8H7.82C7.4 6.85 6.28 6 5 6C3.37 6 2 7.37 2 9Z" fill="black" fill-opacity="0.54"/>
</svg>
