<svg width="16" height="22" viewBox="0 0 16 22" fill="none" xmlns="http://www.w3.org/2000/svg">
<path fill-rule="evenodd" clip-rule="evenodd" d="M9.5 0.334961C9.5 0.334961 10.24 2.98496 10.24 5.13496C10.24 7.19496 8.89 8.86496 6.83 8.86496C4.76 8.86496 3.2 7.19496 3.2 5.13496L3.23 4.77496C1.21 7.17496 0 10.285 0 13.665C0 18.085 3.58 21.665 8 21.665C12.42 21.665 16 18.085 16 13.665C16 8.27496 13.41 3.46496 9.5 0.334961ZM7.57 12.825C6.21 13.105 5.4 13.985 5.4 15.235C5.4 16.575 6.51 17.655 7.89 17.655C9.94 17.655 11.6 15.995 11.6 13.945C11.6 12.875 11.45 11.825 11.14 10.825C10.35 11.895 8.94 12.545 7.57 12.825ZM2 13.665C2 16.975 4.69 19.665 8 19.665C11.31 19.665 14 16.975 14 13.665C14 11.105 13.34 8.63496 12.11 6.43496C11.58 9.03496 9.49 10.865 6.83 10.865C5.27 10.865 3.87 10.245 2.86 9.23496C2.3 10.625 2 12.135 2 13.665Z" fill="black" fill-opacity="0.54"/>
</svg>
